<svg width="609" height="119" viewBox="0 0 609 119" fill="none" xmlns="http://www.w3.org/2000/svg">
<path d="M13.3906 0.25C17.0365 0.25 20.1615 1.48698 22.7656 3.96094C25.3698 6.30469 26.737 9.29948 26.8672 12.9453V60.0156C26.737 65.3542 27.0625 70.3021 27.8438 74.8594C28.7552 79.2865 30.8385 83.2578 34.0938 86.7734C37.349 90.2891 41.4505 92.1771 46.3984 92.4375H108.898C112.544 92.5677 115.539 93.9349 117.883 96.5391C120.357 99.1432 121.594 102.268 121.594 105.914C121.464 109.43 120.161 112.424 117.688 114.898C115.344 117.242 112.414 118.479 108.898 118.609H39.7578C30.6432 118.089 23.0911 115.029 17.1016 109.43C11.2422 103.701 7.01042 96.7344 4.40625 88.5312C1.93229 80.3281 0.630208 71.6042 0.5 62.3594V12.9453C0.630208 9.42969 1.93229 6.5 4.40625 4.15625C6.88021 1.68229 9.875 0.380208 13.3906 0.25ZM245.031 3.375C251.672 3.50521 257.596 5.58854 262.805 9.625C268.013 13.6615 272.18 18.4792 275.305 24.0781C278.56 29.6771 280.969 35.6016 282.531 41.8516C284.094 48.1016 284.875 54.4818 284.875 60.9922C284.875 69.5859 283.508 78.0495 280.773 86.3828C278.169 94.5859 273.807 101.878 267.688 108.258C261.698 114.638 254.146 118.089 245.031 118.609H176.867C167.753 118.219 160.135 114.833 154.016 108.453C147.896 102.073 143.534 94.7161 140.93 86.3828C138.456 78.0495 137.219 69.5859 137.219 60.9922C137.219 52.3984 138.521 44 141.125 35.7969C143.729 27.4635 148.026 20.1068 154.016 13.7266C160.135 7.21615 167.753 3.76562 176.867 3.375H180.578H241.32H245.031ZM238.391 92.4375C243.339 92.1771 247.44 90.3542 250.695 86.9688C254.081 83.4531 256.49 79.4167 257.922 74.8594C259.354 70.3021 260.07 65.6797 260.07 60.9922C260.07 56.3047 259.289 51.7474 257.727 47.3203C256.294 42.763 253.951 38.7266 250.695 35.2109C247.44 31.6953 243.339 29.8073 238.391 29.5469H182.922C177.974 29.8073 173.872 31.6953 170.617 35.2109C167.362 38.7266 164.953 42.763 163.391 47.3203C161.958 51.7474 161.242 56.3047 161.242 60.9922C161.242 65.6797 161.958 70.3021 163.391 74.8594C164.823 79.4167 167.167 83.4531 170.422 86.9688C173.807 90.3542 177.974 92.1771 182.922 92.4375H238.391ZM343.273 3.375H425.695C429.341 3.50521 432.336 4.8724 434.68 7.47656C437.154 10.0807 438.391 13.2057 438.391 16.8516C437.74 24.6641 433.508 28.8958 425.695 29.5469H349.914C344.966 29.8073 340.865 31.6953 337.609 35.2109C334.354 38.7266 331.945 42.763 330.383 47.3203C328.951 51.7474 328.234 56.3047 328.234 60.9922C328.234 65.6797 328.951 70.3021 330.383 74.8594C331.945 79.2865 334.354 83.2578 337.609 86.7734C340.865 90.2891 344.966 92.1771 349.914 92.4375H409.289C411.633 92.3073 412.87 91.0052 413 88.5312V77.2031C412.87 74.599 411.633 73.2969 409.289 73.2969H359.289C355.643 73.2969 352.518 72.0599 349.914 69.5859C347.44 66.9818 346.203 63.8568 346.203 60.2109C346.203 56.5651 347.44 53.4401 349.914 50.8359C352.518 48.362 355.643 47.125 359.289 47.125H426.086C429.732 47.125 432.857 48.362 435.461 50.8359C437.805 53.3099 439.042 56.3047 439.172 59.8203V60.2109V105.914C439.042 109.43 437.805 112.359 435.461 114.703C432.987 117.177 429.992 118.479 426.477 118.609H343.273C334.159 118.089 326.607 114.638 320.617 108.258C314.758 101.747 310.526 94.3906 307.922 86.1875C305.448 77.9844 304.211 69.5859 304.211 60.9922C304.211 52.3984 305.513 44 308.117 35.7969C310.721 27.5938 314.953 20.3021 320.812 13.9219C326.672 7.41146 334.159 3.89583 343.273 3.375ZM568.273 3.375C574.914 3.50521 580.839 5.58854 586.047 9.625C591.255 13.6615 595.422 18.4792 598.547 24.0781C601.802 29.6771 604.211 35.6016 605.773 41.8516C607.336 48.1016 608.117 54.4818 608.117 60.9922C608.117 69.5859 606.75 78.0495 604.016 86.3828C601.411 94.5859 597.049 101.878 590.93 108.258C584.94 114.638 577.388 118.089 568.273 118.609H500.109C490.995 118.219 483.378 114.833 477.258 108.453C471.138 102.073 466.776 94.7161 464.172 86.3828C461.698 78.0495 460.461 69.5859 460.461 60.9922C460.461 52.3984 461.763 44 464.367 35.7969C466.971 27.4635 471.268 20.1068 477.258 13.7266C483.378 7.21615 490.995 3.76562 500.109 3.375H503.82H564.562H568.273ZM561.633 92.4375C566.581 92.1771 570.682 90.3542 573.938 86.9688C577.323 83.4531 579.732 79.4167 581.164 74.8594C582.596 70.3021 583.312 65.6797 583.312 60.9922C583.312 56.3047 582.531 51.7474 580.969 47.3203C579.536 42.763 577.193 38.7266 573.938 35.2109C570.682 31.6953 566.581 29.8073 561.633 29.5469H506.164C501.216 29.8073 497.115 31.6953 493.859 35.2109C490.604 38.7266 488.195 42.763 486.633 47.3203C485.201 51.7474 484.484 56.3047 484.484 60.9922C484.484 65.6797 485.201 70.3021 486.633 74.8594C488.065 79.4167 490.409 83.4531 493.664 86.9688C497.049 90.3542 501.216 92.1771 506.164 92.4375H561.633Z" fill="black"/>
</svg>
